<svg xmlns="http://www.w3.org/2000/svg" xmlns:xlink="http://www.w3.org/1999/xlink">
	<symbol viewBox="0 0 24 24" id="heart">
        <path fill="#E86C60" d="M17,0c-1.9,0-3.7,0.8-5,2.1C10.7,0.8,8.9,0,7,0C3.1,0,0,3.1,0,7c0,6.4,10.9,15.4,11.4,15.8 c0.2,0.2,0.4,0.2,0.6,0.2s0.4-0.1,0.6-0.2C13.1,22.4,24,13.4,24,7C24,3.1,20.9,0,17,0z"></path>
    </symbol>
    <symbol viewBox="0 0 113.4 113.4" id="location">
		<path fill="#000000" d="M56.7 2c-22.3 0-40.3 18-40.3 40.3 0 9 3 17.2 7.9 23.9l32.4 45.1 34.8-48.8C95 56.6 97 49.7 97 42.3 97 20.1 79 2 56.7 2zM56.5 69c-14.7 0-26.7-11.9-26.7-26.7s11.9-26.7 26.7-26.7 26.7 11.9 26.7 26.7S71.2 69 56.5 69z"/>
	</symbol>
</svg>